HIERARCHY
ROOT Hips
{
	OFFSET 0.00000 0.00000 0.00000
	CHANNELS 6 Xposition Yposition Zposition Zrotation Yrotation Xrotation 
	JOINT LHipJoint
	{
		OFFSET 0 0 0
		CHANNELS 3 Zrotation Yrotation Xrotation
		JOINT LeftHip
		{
			OFFSET 1.62964 -1.40469 0.78906
			CHANNELS 3 Zrotation Yrotation Xrotation
			JOINT LeftKnee
			{
				OFFSET 2.29640 -6.30932 0.00000
				CHANNELS 3 Zrotation Yrotation Xrotation
				JOINT LeftAnkle
				{
					OFFSET 2.29451 -6.30412 0.00000
					CHANNELS 3 Zrotation Yrotation Xrotation
					JOINT LeftToe
					{
						OFFSET 0.03611 -0.09921 1.56387
						CHANNELS 3 Zrotation Yrotation Xrotation
						End Site
						{
							OFFSET 0.00000 -0.00000 0.80291
						}
					}
				}
			}
		}
	}
	JOINT RHipJoint
	{
		OFFSET 0 0 0
		CHANNELS 3 Zrotation Yrotation Xrotation
		JOINT RightHip
		{
			OFFSET -1.73712 -1.40469 0.78906
			CHANNELS 3 Zrotation Yrotation Xrotation
			JOINT RightKnee
			{
				OFFSET -2.28137 -6.26801 0.00000
				CHANNELS 3 Zrotation Yrotation Xrotation
				JOINT RightAnkle
				{
					OFFSET -2.28681 -6.28298 0.00000
					CHANNELS 3 Zrotation Yrotation Xrotation
					JOINT RightToe
					{
						OFFSET -0.15927 -0.43759 1.61103
						CHANNELS 3 Zrotation Yrotation Xrotation
						End Site
						{
							OFFSET -0.00000 -0.00000 0.84630
						}
					}
				}
			}
		}
	}
	JOINT lowerback
	{
		OFFSET 0 0 0
		CHANNELS 3 Zrotation Yrotation Xrotation
		JOINT Chest
		{
			OFFSET -0.04227 2.04338 -0.00225
			CHANNELS 3 Zrotation Yrotation Xrotation
			JOINT Chest2
			{
				OFFSET -0.02148 2.04482 -0.04273
				CHANNELS 3 Zrotation Yrotation Xrotation
				JOINT lowerneck
				{
					OFFSET 0 0 0
					CHANNELS 3 Zrotation Yrotation Xrotation
					JOINT Neck
					{
						OFFSET 0.09180 1.44629 0.19359
						CHANNELS 3 Zrotation Yrotation Xrotation
						JOINT Head
						{
							OFFSET 0.00887 1.40645 0.14750
							CHANNELS 3 Zrotation Yrotation Xrotation
							End Site
							{
								OFFSET -0.00669 1.50671 0.03707
							}
						}
					}
				}
				JOINT LeftCollar
				{
					OFFSET 0 0 0
					CHANNELS 3 Zrotation Yrotation Xrotation
					JOINT LeftShoulder
					{
						OFFSET 2.17674 1.86763 -0.06520
CHANNELS 3 Zrotation Xrotation Yrotation
						JOINT LeftElbow
						{
OFFSET 0 -4.657760 0.000000
CHANNELS 3 Zrotation Xrotation Yrotation
							JOINT LeftWrist
							{
OFFSET 0 -3.555390 0.000000
CHANNELS 3 Zrotation Xrotation Yrotation
								JOINT lhand
								{
									OFFSET 0 0 0
CHANNELS 3 Zrotation Xrotation Yrotation
									JOINT LFingers
									{
OFFSET 0 -0.707260 0.000000
CHANNELS 3 Zrotation Xrotation Yrotation
										End Site
										{
OFFSET 0 -0.570220 0.000000
										}
									}
								}
								JOINT LThumb
								{
OFFSET 0 0.000000 0.000000
CHANNELS 3 Zrotation Xrotation Yrotation
									End Site
									{
OFFSET 0 -0.578920 0.578920
									}
								}
							}
						}
					}
				}
				JOINT RightCollar
				{
					OFFSET 0 0 0
					CHANNELS 3 Zrotation Yrotation Xrotation
					JOINT RightShoulder
					{
						OFFSET -2.80694 1.55459 -0.32496
CHANNELS 3 Zrotation Xrotation Yrotation
						JOINT RightElbow
						{
OFFSET 0 -4.719250 -0.000000
CHANNELS 3 Zrotation Xrotation Yrotation
							JOINT RightWrist
							{
OFFSET 0 -3.569900 0.000000
CHANNELS 3 Zrotation Xrotation Yrotation
								JOINT rhand
								{
									OFFSET 0 0 0
CHANNELS 3 Zrotation Xrotation Yrotation
									JOINT RFingers
									{
OFFSET 0 -0.507760 0.000000
CHANNELS 3 Zrotation Xrotation Yrotation
										End Site
										{
OFFSET 0 -0.409370 0.000000
										}
									}
								}
								JOINT RThumb
								{
OFFSET 0 0.000000 0.000000
CHANNELS 3 Zrotation Xrotation Yrotation
									End Site
									{
OFFSET 0 -0.415620 0.415620
									}
								}
							}
						}
					}
				}
			}
		}
	}
}
MOTION
Frames: 9
Frame Time: 0.008333333333333333
10.544084 14.948640 14.821114 173.981823 0.093762 -163.108658 0.000000 0.000000 0.000000 13.815663 -10.033921 -53.482855 3.220383 11.036278 32.410391 -0.309026 10.280860 -0.369761 5.906299 -14.336915 -44.604533 0.000000 0.000000 0.000000 -4.954262 7.769765 3.635266 -4.074437 -12.258762 36.653700 -4.982958 5.851034 -41.298317 -7.813488 15.980280 -51.887947 2.459288 0.549297 -15.258219 -0.118518 0.262742 2.529023 -1.459949 0.289221 11.395957 -0.162533 4.842314 -1.104180 -0.723035 5.993749 14.189984 0.034912 2.630064 4.943159 0.000000 0.000000 0.000000 18.708021 10.367726 -11.837521 14.756352 -23.805595 3.126943 20.126048 -8.958010 12.896218 0.000000 0.000000 0.000000 -7.125000 0.000000 0.000000 -4.952446 16.308674 -3.374507 0.000000 0.000000 0.000000 -13.356936 6.782518 20.703402 -44.634161 -50.587697 -21.955779 -5.579471 -4.428541 57.370318 0.000000 0.000000 0.000000 7.125000 0.000000 0.000000 84.587817 74.018973 -67.912784
10.440705 14.918282 14.769794 173.726073 -0.095084 -162.449255 0.000000 0.000000 0.000000 13.188950 -9.709327 -55.549219 3.610515 11.616490 34.396881 -0.238067 9.110294 -0.109573 5.930316 -14.360206 -44.700935 0.000000 0.000000 0.000000 -5.718836 7.600691 3.301456 -4.044069 -12.218824 36.510672 -4.842669 5.665581 -40.703630 -7.828527 15.991482 -51.942306 1.434548 0.289326 -14.971824 -0.085002 0.118049 2.630159 -0.877598 0.152403 11.328401 -0.375668 4.692426 -1.216942 -0.546536 5.821970 13.751571 0.121666 2.567063 4.786396 0.000000 0.000000 0.000000 19.025804 9.471566 -12.050357 14.747496 -23.793151 3.123355 20.524070 -9.000667 12.902555 0.000000 0.000000 0.000000 -7.125000 0.000000 0.000000 -4.676972 16.265451 -3.191793 0.000000 0.000000 0.000000 -13.172640 6.317420 20.469607 -44.822517 -50.681257 -22.101333 -3.338083 -6.231475 60.703656 0.000000 0.000000 0.000000 7.125000 0.000000 0.000000 90.500092 30.309698 -20.257747
10.338591 14.894354 14.719530 173.458280 -0.356783 -161.870105 0.000000 0.000000 0.000000 12.487951 -9.454783 -57.663436 4.045343 12.215884 36.506616 -0.176779 8.018142 0.312732 6.092979 -14.516431 -45.351187 0.000000 0.000000 0.000000 -6.405755 7.410306 3.075301 -4.022268 -12.190007 36.407524 -4.699460 5.260933 -40.123694 -7.936997 16.072611 -52.335209 0.428227 0.026008 -14.680108 -0.049692 -0.042004 2.849219 -0.307048 0.010721 11.396996 -0.616546 4.579430 -1.393763 -0.424634 5.721985 13.203950 0.198257 2.541493 4.605432 0.000000 0.000000 0.000000 19.350035 8.354341 -12.307936 14.751892 -23.799268 3.125109 20.903828 -8.701749 12.275924 0.000000 0.000000 0.000000 -7.125000 0.000000 0.000000 -4.393133 16.892643 -2.936078 0.000000 0.000000 0.000000 -12.850123 5.567344 19.971349 -44.773616 -50.657093 -22.063514 -1.490017 -7.613600 63.041783 0.000000 0.000000 0.000000 7.125000 0.000000 0.000000 87.931072 -48.572864 79.235029
10.237053 14.875650 14.668071 173.321763 -0.700097 -161.364442 0.000000 0.000000 0.000000 11.874784 -9.227071 -59.808377 4.521520 12.823024 38.710786 -0.123470 6.976370 0.824094 6.435191 -14.837199 -46.704297 0.000000 0.000000 0.000000 -6.857004 7.210698 2.961849 -4.008955 -12.172339 36.344278 -4.580629 4.823661 -39.655180 -8.062163 16.164778 -52.786360 -0.399421 -0.220877 -14.225189 0.006195 -0.222827 3.023698 0.180087 -0.132867 11.326033 -0.803867 4.474100 -1.540901 -0.320437 5.624481 12.700938 0.258930 2.515456 4.439800 0.000000 0.000000 0.000000 19.768048 7.374813 -12.786319 14.823476 -23.899581 3.154024 21.051334 -8.365930 11.666972 0.000000 0.000000 0.000000 -7.125000 0.000000 0.000000 -4.270864 17.525023 -2.794393 0.000000 0.000000 0.000000 -12.452780 4.993313 19.472644 -44.844537 -50.691930 -22.118411 -6.741475 -2.986276 56.800460 0.000000 0.000000 0.000000 7.125000 0.000000 0.000000 82.496303 74.454297 -66.229386
10.151354 14.864322 14.605635 173.378838 -1.010811 -160.893140 0.000000 0.000000 0.000000 11.534322 -8.928292 -61.772799 4.985126 13.364459 40.753211 -0.093376 6.282561 1.121749 6.593531 -14.979628 -47.319325 0.000000 0.000000 0.000000 -6.963977 7.281869 2.924577 -3.968657 -12.118550 36.152558 -4.426181 4.048650 -39.081488 -8.177524 16.248228 -53.199463 -1.228913 -0.424099 -13.787786 0.138765 -0.362921 3.140183 0.762427 -0.261286 11.207299 -1.013229 4.393157 -1.502072 -0.107962 5.536447 12.190634 0.353796 2.494615 4.232600 0.000000 0.000000 0.000000 20.310262 6.585273 -13.473296 14.897155 -24.002576 3.183945 21.113944 -8.292424 11.685478 0.000000 0.000000 0.000000 -7.125000 0.000000 0.000000 -4.227626 17.499858 -2.768277 0.000000 0.000000 0.000000 -12.151061 5.016403 19.286285 -45.512662 -51.016653 -22.636757 -7.446439 -2.697355 53.587563 0.000000 0.000000 0.000000 7.125000 0.000000 0.000000 70.915846 74.143411 -54.768182
10.058168 14.854732 14.548416 173.594728 -1.348598 -160.232017 0.000000 0.000000 0.000000 11.391395 -8.632764 -63.809217 5.413943 13.831706 42.574581 -0.077954 5.913264 1.299991 6.293729 -14.704978 -46.145645 0.000000 0.000000 0.000000 -6.933915 7.357200 2.706408 -3.915653 -12.047215 35.899429 -4.242843 3.483577 -38.329773 -8.242745 16.294925 -53.432349 -1.624765 -0.505110 -13.451874 0.181340 -0.411204 3.183916 1.022674 -0.312188 11.062928 -1.076406 4.260940 -1.606933 0.154275 5.355695 11.954324 0.443822 2.426583 4.158048 0.000000 0.000000 0.000000 21.051750 5.730166 -14.181449 14.949658 -24.075850 3.205396 21.368265 -8.275108 12.158043 0.000000 0.000000 0.000000 -7.125000 0.000000 0.000000 -4.066335 16.974351 -2.708356 0.000000 0.000000 0.000000 -11.653469 5.173123 19.009477 -46.277815 -51.377979 -23.233300 -8.233987 -2.283802 53.421110 0.000000 0.000000 0.000000 7.125000 0.000000 0.000000 69.972268 74.429441 -54.166575
9.958815 14.848809 14.493002 173.763850 -1.637110 -159.529993 0.000000 0.000000 0.000000 11.175087 -8.388628 -65.667295 5.789080 14.217819 44.123643 -0.066623 5.610651 1.419117 5.816092 -14.241557 -44.227423 0.000000 0.000000 0.000000 -7.000510 7.460515 2.442347 -3.867906 -11.982431 35.670093 -4.064861 3.524886 -37.469109 -8.135825 16.217792 -53.049641 -1.935603 -0.512132 -13.225355 0.152873 -0.368436 3.268942 1.177646 -0.312656 11.025609 -0.981668 4.064727 -1.725022 0.295160 5.095748 11.683549 0.463162 2.321722 4.083898 0.000000 0.000000 0.000000 21.843071 4.766720 -14.941763 15.076504 -24.252360 3.257367 21.517132 -8.262998 12.786120 0.000000 0.000000 0.000000 -7.125000 0.000000 0.000000 -3.986849 16.292466 -2.714693 0.000000 0.000000 0.000000 -11.035860 5.242014 18.594615 -47.011182 -51.715120 -23.807652 -8.829810 -2.012220 53.981745 0.000000 0.000000 0.000000 7.125000 0.000000 0.000000 71.737156 74.790004 -56.218198
9.854548 14.848646 14.435962 173.792479 -1.856614 -158.928514 0.000000 0.000000 0.000000 10.762618 -8.290643 -67.159645 6.103134 14.525695 45.390807 -0.054664 5.223049 1.492568 5.535033 -13.961841 -43.085306 0.000000 0.000000 0.000000 -7.240963 7.588667 2.324755 -3.798987 -11.887684 35.336230 -3.871468 3.775843 -36.472767 -7.950710 16.082227 -52.383739 -2.288943 -0.480821 -13.078079 0.046355 -0.259396 3.491983 1.285681 -0.286085 11.187306 -0.812297 3.844924 -1.879463 0.368661 4.814701 11.324258 0.446192 2.209631 3.990000 0.000000 0.000000 0.000000 22.699374 3.561038 -15.790925 15.235323 -24.472713 3.322862 21.545703 -8.266430 13.231436 0.000000 0.000000 0.000000 -7.125000 0.000000 0.000000 -3.985129 15.816159 -2.754914 0.000000 0.000000 0.000000 -10.389512 5.099750 18.137707 -47.590486 -51.975609 -24.262935 -9.486765 -1.811247 54.008842 0.000000 0.000000 0.000000 7.125000 0.000000 0.000000 71.569915 75.043845 -56.345494
9.748078 14.853790 14.377611 173.753144 -1.990603 -158.406494 0.000000 0.000000 0.000000 10.280336 -8.316002 -68.307790 6.359343 14.766776 46.405500 -0.043675 4.739290 1.425834 5.532123 -13.958681 -43.072923 0.000000 0.000000 0.000000 -7.564352 7.797821 2.314165 -3.709317 -11.762862 34.898542 -3.658341 3.770049 -35.406815 -7.838081 15.998870 -51.977192 -2.649321 -0.401972 -12.920741 -0.105460 -0.083237 3.770492 1.362705 -0.229070 11.401667 -0.646297 3.601343 -2.085700 0.459647 4.498558 11.011411 0.435891 2.078769 3.922615 0.000000 0.000000 0.000000 23.618935 2.154648 -16.751080 15.354340 -24.637385 3.372257 21.601918 -8.279566 13.457649 0.000000 0.000000 0.000000 -7.125000 0.000000 0.000000 -3.956379 15.569797 -2.755762 0.000000 0.000000 0.000000 -9.772376 4.703667 17.641035 -47.728656 -52.037020 -24.371682 -8.839301 -2.572071 55.165707 0.000000 0.000000 0.000000 7.125000 0.000000 0.000000 75.927991 74.927133 -60.494318
